<svg xmlns="http://www.w3.org/2000/svg" width="32" height="32" fill="none" viewBox="0 0 32 32">
  <g clip-path="url(#a)">
    <g clip-path="url(#b)">
      <path fill="#FBD24C" d="M16 0C3.2 0 0 3.2 0 16s3.2 16 16 16 16-3.2 16-16S28.8 0 16 0Z"/>
      <g clip-path="url(#c)">
        <mask id="d" width="24" height="24" x="4" y="4" maskUnits="userSpaceOnUse" style="mask-type:luminance">
          <path fill="#fff" d="M16 5.36a.56.56 0 1 0 0-1.12.56.56 0 0 0 0 1.12ZM13.76 7.6a.56.56 0 1 0 0-1.12.56.56 0 0 0 0 1.12Zm1.68 0h1.12V6.48a1.12 1.12 0 0 0-1.12 1.12Zm1.12-1.12V7.6h.56a.56.56 0 0 0 0-1.12"/>
          <path fill="#fff" d="M16.56 7.6h-1.12v.56a.56.56 0 0 0 1.12 0M13.2 9.84h1.12v-.56a.56.56 0 0 0-1.12 0m4.48.56h1.12v-.56a.56.56 0 0 0-1.12 0m-3.36.56H13.2v1.12h1.12V9.84Zm1.12 0h-1.12v1.12h1.12V9.84Z"/>
          <path fill="#fff" d="M16.56 9.84h-1.12v1.12h1.12V9.84Zm1.12 0h-1.12v1.12h1.12V9.84Zm1.12 0h-1.12v1.12h1.12V9.84Zm-4.48 1.12H13.2v.56a.56.56 0 0 0 1.12 0m2.24-.56h-1.12v.56a.56.56 0 0 0 1.12 0m2.24-.56h-1.12v1.12h1.12v-1.12Z"/>
          <path fill="#fff" d="M17.68 13.2v-1.12h-.56a.56.56 0 0 0 0 1.12m1.68-1.12h-1.12v1.12h1.12v-1.12ZM5.36 14.32h1.12v-.56a.56.56 0 0 0-1.12 0m3.36.56h1.12v-.56a.56.56 0 0 0-1.12 0m2.8.56a.56.56 0 1 0 0-1.12.56.56 0 0 0 0 1.12Zm2.8 0V13.2h-.56a.56.56 0 0 0 0 1.12m1.68-1.12h-1.12v1.12h1.12V13.2Z"/>
          <path fill="#fff" d="M15.44 13.2v1.12H16a.56.56 0 0 0 0-1.12m2.8 0h-1.12v1.12h1.12V13.2Zm0 0v1.12h1.12a1.12 1.12 0 0 0-1.12-1.12Zm2.24 1.12h1.12V13.2a1.12 1.12 0 0 0-1.12 1.12Zm1.12-1.12v1.12h1.12a1.12 1.12 0 0 0-1.12-1.12Zm2.24 1.12h1.12v-.56a.56.56 0 0 0-1.12 0M6.48 15.44v-1.12H5.36a1.12 1.12 0 0 0 1.12 1.12Zm1.12-1.12H6.48v1.12H7.6v-1.12Zm1.12 0H7.6v1.12h1.12v-1.12Zm1.12 0H8.72v1.12a1.12 1.12 0 0 0 1.12-1.12Zm5.6 0h-1.12v1.12h1.12v-1.12Zm3.36 1.12v-1.12h-1.12a1.12 1.12 0 0 0 1.12 1.12Zm1.12-1.12H18.8v1.12h1.12v-1.12Z"/>
          <path fill="#fff" d="M21.04 14.32h-1.12v1.12h1.12v-1.12Zm1.12 0h-1.12v1.12h1.12v-1.12Zm1.12 0h-1.12v1.12h1.12v-1.12Z"/>
          <path fill="#fff" d="M24.4 14.32h-1.12v1.12h1.12v-1.12Zm1.12 0H24.4v1.12h1.12v-1.12ZM4.8 16.56a.56.56 0 1 0 0-1.12.56.56 0 0 0 0 1.12Zm2.8-1.12H6.48V16a.56.56 0 0 0 1.12 0m3.92.56a.56.56 0 1 0 0-1.12.56.56 0 0 0 0 1.12Zm3.92-1.12h-1.12v1.12h1.12v-1.12Z"/>
          <path fill="#fff" d="M15.44 15.44v1.12h1.12a1.12 1.12 0 0 0-1.12-1.12Zm5.6 0h-1.12V16a.56.56 0 0 0 1.12 0m2.24-.56h-1.12v1.12h1.12v-1.12Zm2.24 1.12v-1.12H24.4a1.12 1.12 0 0 0 1.12 1.12Zm0-1.12v1.12h1.12a1.12 1.12 0 0 0-1.12-1.12ZM9.84 17.68v-1.12h-.56a.56.56 0 0 0 0 1.12m.56-1.12v1.12h1.12a1.12 1.12 0 0 0-1.12-1.12Zm2.24 1.12h1.12v-1.12a1.12 1.12 0 0 0-1.12 1.12Zm2.24-1.12H13.2v1.12h1.12v-1.12Zm1.12 0h-1.12v1.12h1.12v-1.12Z"/>
          <path fill="#fff" d="M16.56 16.56h-1.12v1.12h1.12v-1.12Zm1.12 0h-1.12v1.12h1.12v-1.12Zm0 0v1.12h1.12a1.12 1.12 0 0 0-1.12-1.12Zm5.6 0h-1.12v.56a.56.56 0 0 0 1.12 0m3.36.56v-1.12h-1.12a1.12 1.12 0 0 0 1.12 1.12Zm0-1.12v1.12h1.12a1.12 1.12 0 0 0-1.12-1.12ZM5.36 18.8v-1.12H4.8a.56.56 0 0 0 0 1.12m1.68-1.12H5.36v1.12h1.12v-1.12Zm0 0v1.12h.56a.56.56 0 0 0 0-1.12m3.92 1.12v-1.12H9.84a1.12 1.12 0 0 0 1.12 1.12Zm1.12-1.12h-1.12v1.12h1.12v-1.12Z"/>
          <path fill="#fff" d="M13.2 17.68h-1.12v1.12a1.12 1.12 0 0 0 1.12-1.12Zm3.36 0h-1.12v.56a.56.56 0 0 0 1.12 0m2.24-.56h-1.12v1.12h1.12v-1.12Zm0 0v1.12h.56a.56.56 0 0 0 0-1.12m3.92 1.12h1.12v-.56a.56.56 0 0 0-1.12 0m4.48-.56h-1.12v.56a.56.56 0 0 0 1.12 0m-13.44 1.68V18.8h-.56a.56.56 0 0 0 0 1.12m.56-1.12v1.12h.56a.56.56 0 0 0 0-1.12m2.8 1.12V18.8h-.56a.56.56 0 0 0 0 1.12m1.68-1.12h-1.12v1.12a1.12 1.12 0 0 0 1.12-1.12Zm3.36 1.12V18.8h-.56a.56.56 0 0 0 0 1.12m1.68-1.12h-1.12v1.12h1.12V18.8Z"/>
          <path fill="#fff" d="M24.4 18.8h-1.12v1.12h1.12V18.8Zm0 0v1.12h1.12a1.12 1.12 0 0 0-1.12-1.12Zm-3.92 2.24a.56.56 0 1 0 0-1.12.56.56 0 0 0 0 1.12Zm2.8-1.12h-1.12v.56a.56.56 0 0 0 1.12 0"/>
          <path fill="#fff" d="M25.52 21.04v-1.12H24.4a1.12 1.12 0 0 0 1.12 1.12Zm0-1.12v1.12h1.12a1.12 1.12 0 0 0-1.12-1.12Zm-10.64 2.24a.56.56 0 1 0 0-1.12.56.56 0 0 0 0 1.12Zm3.92 0v-1.12h-.56a.56.56 0 0 0 0 1.12m.56-1.12v1.12h.56a.56.56 0 0 0 0-1.12m1.68 1.12h1.12v-.56a.56.56 0 0 0-1.12 0m2.8.56a.56.56 0 1 0 0-1.12.56.56 0 0 0 0 1.12Zm2.8-1.12h-1.12v1.12h1.12v-1.12Zm0 0v1.12h.56a.56.56 0 0 0 0-1.12m-13.44 2.24a.56.56 0 1 0 0-1.12.56.56 0 0 0 0 1.12Zm3.36 0a.56.56 0 1 0 0-1.12.56.56 0 0 0 0 1.12Zm5.04 0v-1.12h-1.12a1.12 1.12 0 0 0 1.12 1.12Zm0-1.12v1.12h1.12a1.12 1.12 0 0 0-1.12-1.12Zm4.48 0h-1.12v1.12h1.12v-1.12Zm-11.2 2.24v-1.12h-.56a.56.56 0 0 0 0 1.12m.56-1.12v1.12H16a.56.56 0 0 0 0-1.12m2.8 1.12v-1.12h-.56a.56.56 0 0 0 0 1.12m1.68-1.12H18.8v1.12h1.12v-1.12Zm0 0v1.12h1.12a1.12 1.12 0 0 0-1.12-1.12Zm3.36 0h-1.12v1.12h1.12v-1.12Zm0 0v1.12h1.12a1.12 1.12 0 0 0-1.12-1.12Zm3.36 1.12v-1.12h-1.12a1.12 1.12 0 0 0 1.12 1.12Zm0-1.12v1.12h.56a.56.56 0 0 0 0-1.12m-10.08 2.24a.56.56 0 1 0 0-1.12.56.56 0 0 0 0 1.12Zm3.92-1.12h-1.12v.56a.56.56 0 0 0 1.12 0m2.24-.56h-1.12v1.12h1.12V24.4Z"/>
          <path fill="#fff" d="M24.4 24.4h-1.12v1.12h1.12V24.4Zm0 0v1.12h.56a.56.56 0 0 0 0-1.12m-11.2 2.24a.56.56 0 1 0 0-1.12.56.56 0 0 0 0 1.12Zm1.68 0h1.12v-.56a.56.56 0 0 0-1.12 0m3.92.56a.56.56 0 1 0 0-1.12.56.56 0 0 0 0 1.12Zm3.92-1.12h-1.12v.56a.56.56 0 0 0 1.12 0m-6.72 1.68v-1.12h-1.12a1.12 1.12 0 0 0 1.12 1.12Zm1.12-1.12h-1.12v1.12h1.12v-1.12Zm0 0v1.12h.56a.56.56 0 0 0 0-1.12m3.36 1.12a.56.56 0 1 0 0-1.12.56.56 0 0 0 0 1.12Zm2.24 0a.56.56 0 1 0 0-1.12.56.56 0 0 0 0 1.12Zm3.36 0a.56.56 0 1 0 0-1.12.56.56 0 0 0 0 1.12Z"/>
        </mask>
        <g mask="url(#d)">
          <path fill="#151002" d="M28 4H4v24h24V4Z"/>
        </g>
        <mask id="e" width="9" height="9" x="4" y="4" maskUnits="userSpaceOnUse" style="mask-type:luminance">
          <path fill="#fff" fill-rule="evenodd" d="M4.24 7.04v2.24a2.8 2.8 0 0 0 2.8 2.8h2.24a2.8 2.8 0 0 0 2.8-2.8V7.04a2.8 2.8 0 0 0-2.8-2.8H7.04a2.8 2.8 0 0 0-2.8 2.8Zm2.8-1.68h2.24a1.68 1.68 0 0 1 1.68 1.68v2.24a1.68 1.68 0 0 1-1.68 1.68H7.04a1.68 1.68 0 0 1-1.68-1.68V7.04a1.68 1.68 0 0 1 1.68-1.68Z" clip-rule="evenodd"/>
        </mask>
        <g mask="url(#e)">
          <path fill="#151002" d="M12.08 4.24H4.24v7.84h7.84V4.24Z"/>
        </g>
        <mask id="f" width="4" height="4" x="6" y="6" maskUnits="userSpaceOnUse" style="mask-type:luminance">
          <path fill="#fff" d="M6.48 7.6H7.6V6.48A1.12 1.12 0 0 0 6.48 7.6Zm2.24-1.12H7.6V7.6h1.12V6.48Z"/>
          <path fill="#fff" d="M8.72 6.48V7.6h1.12a1.12 1.12 0 0 0-1.12-1.12ZM7.6 7.6H6.48v1.12H7.6V7.6Zm1.12 0H7.6v1.12h1.12V7.6Zm1.12 0H8.72v1.12h1.12V7.6ZM7.6 9.84V8.72H6.48A1.12 1.12 0 0 0 7.6 9.84Zm1.12-1.12H7.6v1.12h1.12V8.72Zm1.12 0H8.72v1.12a1.12 1.12 0 0 0 1.12-1.12Z"/>
        </mask>
        <g mask="url(#f)">
          <path fill="#151002" d="M9.84 6.48H6.48v3.36h3.36V6.48Z"/>
        </g>
        <mask id="g" width="9" height="9" x="19" y="4" maskUnits="userSpaceOnUse" style="mask-type:luminance">
          <path fill="#fff" fill-rule="evenodd" d="M24.96 4.24h-2.24a2.8 2.8 0 0 0-2.8 2.8v2.24a2.8 2.8 0 0 0 2.8 2.8h2.24a2.8 2.8 0 0 0 2.8-2.8V7.04a2.8 2.8 0 0 0-2.8-2.8Zm1.68 2.8v2.24a1.68 1.68 0 0 1-1.68 1.68h-2.24a1.68 1.68 0 0 1-1.68-1.68V7.04a1.68 1.68 0 0 1 1.68-1.68h2.24a1.68 1.68 0 0 1 1.68 1.68Z" clip-rule="evenodd"/>
        </mask>
        <g mask="url(#g)">
          <path fill="#151002" d="M27.76 4.24h-7.84v7.84h7.84V4.24Z"/>
        </g>
        <mask id="h" width="4" height="4" x="22" y="6" maskUnits="userSpaceOnUse" style="mask-type:luminance">
          <path fill="#fff" d="M22.16 7.6h1.12V6.48a1.12 1.12 0 0 0-1.12 1.12Z"/>
          <path fill="#fff" d="M24.4 6.48h-1.12V7.6h1.12V6.48Zm0 0V7.6h1.12a1.12 1.12 0 0 0-1.12-1.12ZM23.28 7.6h-1.12v1.12h1.12V7.6Z"/>
          <path fill="#fff" d="M24.4 7.6h-1.12v1.12h1.12V7.6Zm1.12 0H24.4v1.12h1.12V7.6Zm-2.24 2.24V8.72h-1.12a1.12 1.12 0 0 0 1.12 1.12Z"/>
          <path fill="#fff" d="M24.4 8.72h-1.12v1.12h1.12V8.72Zm1.12 0H24.4v1.12a1.12 1.12 0 0 0 1.12-1.12Z"/>
        </mask>
        <g mask="url(#h)">
          <path fill="#151002" d="M25.52 6.48h-3.36v3.36h3.36V6.48Z"/>
        </g>
        <mask id="i" width="9" height="9" x="4" y="19" maskUnits="userSpaceOnUse" style="mask-type:luminance">
          <path fill="#fff" fill-rule="evenodd" d="M7.04 27.76h2.24a2.8 2.8 0 0 0 2.8-2.8v-2.24a2.8 2.8 0 0 0-2.8-2.8H7.04a2.8 2.8 0 0 0-2.8 2.8v2.24a2.8 2.8 0 0 0 2.8 2.8Zm-1.68-2.8v-2.24a1.68 1.68 0 0 1 1.68-1.68h2.24a1.68 1.68 0 0 1 1.68 1.68v2.24a1.68 1.68 0 0 1-1.68 1.68H7.04a1.68 1.68 0 0 1-1.68-1.68Z" clip-rule="evenodd"/>
        </mask>
        <g mask="url(#i)">
          <path fill="#151002" d="M12.08 19.92H4.24v7.84h7.84v-7.84Z"/>
        </g>
        <mask id="j" width="4" height="4" x="6" y="22" maskUnits="userSpaceOnUse" style="mask-type:luminance">
          <path fill="#fff" d="M6.48 23.28H7.6v-1.12a1.12 1.12 0 0 0-1.12 1.12Zm2.24-1.12H7.6v1.12h1.12v-1.12Z"/>
          <path fill="#fff" d="M8.72 22.16v1.12h1.12a1.12 1.12 0 0 0-1.12-1.12ZM7.6 23.28H6.48v1.12H7.6v-1.12Zm1.12 0H7.6v1.12h1.12v-1.12Zm1.12 0H8.72v1.12h1.12v-1.12Z"/>
          <path fill="#fff" d="M7.6 25.52V24.4H6.48a1.12 1.12 0 0 0 1.12 1.12Z"/>
          <path fill="#fff" d="M8.72 24.4H7.6v1.12h1.12V24.4Zm1.12 0H8.72v1.12a1.12 1.12 0 0 0 1.12-1.12Z"/>
        </mask>
        <g mask="url(#j)">
          <path fill="#151002" d="M9.84 22.16H6.48v3.36h3.36v-3.36Z"/>
        </g>
      </g>
    </g>
  </g>
  <defs>
    <clipPath id="a">
      <path fill="#fff" d="M0 0h32v32H0z"/>
    </clipPath>
    <clipPath id="b">
      <path fill="#fff" d="M0 0h32v32H0z"/>
    </clipPath>
    <clipPath id="c">
      <path fill="#fff" d="M4 4h24v24H4z"/>
    </clipPath>
  </defs>
</svg>
